<?xml version="1.0" standalone="no"?>
<!DOCTYPE svg PUBLIC "-//W3C//DTD SVG 20010904//EN"
 "http://www.w3.org/TR/2001/REC-SVG-20010904/DTD/svg10.dtd">
<svg version="1.0" xmlns="http://www.w3.org/2000/svg"
 width="2083.000000pt" height="2083.000000pt" viewBox="0 0 2083.000000 2083.000000"
 preserveAspectRatio="xMidYMid meet">
<metadata>
Created by potrace 1.16, written by Peter Selinger 2001-2019
</metadata>
<g transform="translate(0.000000,2083.000000) scale(0.100000,-0.100000)"
fill="#000000" stroke="none">
<path d="M0 10415 l0 -10415 10415 0 10415 0 0 10415 0 10415 -10415 0 -10415
0 0 -10415z m12880 3730 l0 -1145 -110 0 -110 0 0 1145 0 1145 110 0 110 0 0
-1145z m-422 -22 l-3 -1157 -95 -28 c-52 -15 -101 -28 -108 -28 -10 0 -12 238
-10 1173 l3 1172 95 11 c52 6 101 12 108 13 10 1 12 -233 10 -1156z m765 1141
l77 -6 0 -1174 c0 -646 -1 -1174 -3 -1174 -1 0 -49 14 -107 30 -58 17 -106 30
-107 30 -2 0 -3 520 -3 1156 l0 1156 33 -5 c17 -3 67 -9 110 -13z m-1183
-1251 l0 -1208 -103 -67 c-57 -38 -106 -68 -110 -68 -4 0 -7 562 -7 1250 l0
1249 38 10 c61 16 156 39 170 40 9 1 12 -246 12 -1206z m1578 1185 l102 -21 0
-1254 0 -1253 -110 72 -110 73 0 1203 c0 661 3 1202 8 1202 4 0 53 -10 110
-22z m-1998 -1413 l0 -1325 -60 -81 c-33 -45 -79 -116 -103 -160 -23 -43 -45
-79 -49 -79 -5 0 -8 29 -8 64 l0 64 51 45 52 45 -27 116 c-14 63 -26 118 -26
122 0 4 -11 -3 -25 -16 l-25 -23 0 1239 0 1240 103 36 c56 20 105 37 110 37 4
1 7 -595 7 -1324z m2420 1291 l95 -34 2 -1448 3 -1449 -46 81 c-26 45 -75 121
-110 168 l-64 86 0 1315 c0 1045 3 1315 13 1315 6 0 55 -15 107 -34z m-2840
-973 l-1 -848 -25 50 c-15 28 -33 61 -41 74 l-15 23 -69 -68 -69 -68 0 129 c0
115 2 131 20 150 l20 22 -20 25 c-20 26 -20 39 -20 637 l0 611 108 54 c59 30
108 55 110 55 1 1 2 -380 2 -846z m3255 795 l105 -53 0 -3360 0 -3360 -105
-53 c-58 -28 -107 -52 -110 -52 -3 0 -5 1559 -5 3465 0 1906 2 3465 5 3465 3
0 52 -24 110 -52z m-3676 -725 l-2 -548 -108 -104 -109 -105 0 131 0 131 106
101 c106 102 106 102 88 124 -42 51 -119 127 -128 127 -5 0 -23 -12 -38 -27
l-28 -27 0 302 0 302 103 69 c56 38 105 70 110 70 4 1 6 -245 6 -546z m4104
482 l97 -65 0 -3105 0 -3105 -97 -65 c-54 -36 -104 -65 -110 -65 -10 0 -13
643 -13 3235 0 2592 3 3235 13 3235 6 0 56 -29 110 -65z m412 -317 l105 -92 0
-2761 0 -2761 -105 -92 c-57 -51 -107 -92 -110 -92 -3 0 -5 1325 -5 2945 0
1620 2 2945 5 2945 3 0 53 -41 110 -92z m-4935 7 c0 -72 -1 -75 -20 -63 -21
14 -24 12 -142 -101 l-58 -55 0 54 1 55 105 93 c57 50 106 92 109 92 3 0 5
-34 5 -75z m-110 -670 l-110 -110 0 131 0 131 108 104 107 104 3 -125 3 -124
-111 -111z m-419 151 c-146 -146 -148 -117 -3 62 l107 133 3 -42 c3 -42 2 -44
-107 -153z m5888 72 l101 -123 0 -2290 0 -2290 -101 -122 c-55 -68 -104 -123
-110 -123 -5 0 -9 954 -9 2535 0 1581 4 2535 9 2535 6 0 55 -55 110 -122z
m-5886 -626 l-108 -103 -3 125 -3 125 108 105 108 104 3 -126 3 -127 -108
-103z m420 -151 l-108 -105 -3 125 -3 125 108 107 108 106 3 -127 3 -127 -108
-104z m5886 137 l101 -191 -2 -1591 -3 -1591 -98 -182 c-54 -101 -103 -183
-108 -183 -5 0 -9 757 -9 1965 0 1193 4 1965 9 1965 5 0 55 -86 110 -192z
m-5466 -288 l-108 -105 -3 125 -3 124 108 108 108 108 3 -127 3 -128 -108
-105z m-1260 -103 l-108 -106 -3 127 -3 127 108 103 108 103 3 -124 3 -125
-108 -105z m1680 -47 l-108 -105 -3 125 -3 124 108 108 108 108 3 -127 3 -128
-108 -105z m-1260 -104 l-108 -104 -3 127 -3 126 108 103 108 102 3 -125 3
-126 -108 -103z m420 -151 l-108 -102 -3 126 -3 126 108 102 108 102 3 -126 3
-126 -108 -102z m420 -151 l-108 -101 -3 126 -3 126 108 101 108 102 3 -126 3
-126 -108 -102z m-1255 -101 c-56 -57 -106 -103 -110 -103 -5 0 -8 55 -8 122
l0 123 108 108 107 107 3 -127 3 -127 -103 -103z m1675 -49 l-108 -101 -3 126
-3 126 108 101 108 101 3 -126 3 -126 -108 -101z m-1263 -109 l-110 -110 0
130 0 130 108 108 107 107 3 -127 3 -127 -111 -111z m6630 308 c0 -5 16 -80
34 -168 100 -463 113 -977 36 -1440 -28 -163 -72 -355 -82 -355 -4 0 -8 443
-8 985 0 650 3 985 10 985 6 0 10 -3 10 -7z m-6210 -458 l-110 -110 0 130 0
130 108 108 107 107 3 -127 3 -127 -111 -111z m530 82 l0 -122 -110 -110 -110
-110 0 130 0 130 102 102 c57 57 106 103 110 103 5 0 8 -55 8 -123z m-1367
-333 l-108 -101 -3 126 -3 126 108 101 108 101 3 -126 3 -126 -108 -101z
m1677 -49 l-110 -110 0 131 0 131 108 104 107 104 3 -125 3 -124 -111 -111z
m-1257 -102 l-108 -101 -3 126 -3 126 108 102 108 101 3 -126 3 -126 -108
-102z m420 -150 l-108 -102 -3 125 -3 126 108 103 108 102 3 -126 3 -126 -108
-102z m420 -151 l-108 -102 -3 125 -3 124 108 105 108 104 3 -126 3 -127 -108
-103z m-1263 -107 l-110 -110 0 131 0 130 108 105 107 104 3 -125 3 -124 -111
-111z m1683 -44 l-108 -103 -3 124 -3 124 108 107 108 106 3 -127 3 -127 -108
-104z m-1263 -106 l-110 -110 0 131 0 131 108 104 107 104 3 -125 3 -124 -111
-111z m423 -148 l-108 -106 -3 127 -3 127 108 104 108 103 3 -125 3 -125 -108
-105z m420 -151 l-108 -104 -3 126 -3 127 108 103 108 102 3 -125 3 -124 -108
-105z m-1260 -105 l-108 -103 -3 125 -3 125 108 105 108 106 3 -127 3 -127
-108 -104z m1680 -46 l-108 -102 -3 126 -3 126 108 102 108 102 3 -126 3 -125
-108 -103z m-1260 -105 l-108 -105 -3 125 -3 124 108 108 108 108 3 -127 3
-128 -108 -105z m4300 -2560 c-11 -9 -186 -70 -201 -70 -9 0 -12 281 -12 1315
l0 1315 64 87 c36 48 84 122 108 164 l43 77 3 -1441 c1 -792 -1 -1444 -5
-1447z m-3880 2410 l-108 -105 -3 125 -3 124 108 108 108 108 3 -127 3 -128
-108 -105z m1306 252 l61 -82 0 -1326 c0 -1057 -3 -1325 -12 -1322 -7 3 -57
20 -110 39 l-98 33 0 1146 c0 1118 1 1147 20 1209 21 67 20 82 -5 61 -13 -11
-15 2 -15 116 l0 128 42 43 c23 24 45 42 49 41 4 -2 34 -40 68 -86z m-881
-399 c-56 -57 -106 -103 -110 -103 -5 0 -8 55 -8 122 l0 123 108 108 107 107
3 -127 3 -127 -103 -103z m-1265 -108 l-108 -102 -3 126 -3 126 108 102 108
102 3 -125 3 -126 -108 -103z m1677 -50 l-110 -110 0 130 0 130 108 108 107
107 3 -127 3 -127 -111 -111z m847 198 l103 -68 0 -1207 c0 -665 -2 -1208 -4
-1208 -7 0 -134 29 -178 41 l-38 10 0 1249 c0 688 3 1250 7 1250 4 0 53 -30
110 -67z m1783 -1186 l0 -1252 -102 -23 c-57 -12 -106 -22 -110 -22 -5 0 -8
541 -8 1203 l0 1202 108 72 c59 39 108 72 110 72 1 1 2 -563 2 -1252z m-3887
887 l-108 -101 -3 126 -3 126 108 102 108 101 3 -126 3 -126 -108 -102z m420
-150 l-108 -101 -3 126 -3 126 108 101 108 101 3 -126 3 -126 -108 -101z
m2107 248 l95 -28 3 -1157 2 -1157 -42 6 c-24 3 -72 8 -108 12 l-65 7 -3 1173
c-2 934 0 1172 10 1172 7 0 56 -13 108 -28z m940 -1146 l0 -1173 -77 -7 c-43
-4 -93 -9 -110 -12 l-33 -6 0 1155 0 1156 58 16 c31 9 77 23 102 30 25 7 48
14 53 14 4 1 7 -527 7 -1173z m-2627 748 l-108 -102 -3 126 -3 127 108 101
108 101 3 -126 3 -126 -108 -101z m2207 -809 l0 -1145 -110 0 -110 0 0 1145 0
1145 110 0 110 0 0 -1145z m-3383 788 l-23 -24 -45 85 -44 85 65 66 65 66 3
-128 c3 -122 2 -128 -21 -150z m1703 -683 l0 -910 -110 55 -110 55 0 752 0
752 108 102 c59 57 108 103 110 104 1 0 2 -410 2 -910z m-1370 445 l-110 -110
0 130 0 130 108 108 107 107 3 -127 3 -127 -111 -111z m420 -150 l-110 -110 0
131 0 130 108 105 107 104 3 -125 3 -124 -111 -111z m420 -150 l-110 -110 0
131 0 131 108 104 107 104 3 -125 3 -124 -111 -111z m-732 -66 l-3 -62 -52 64
-53 64 53 53 52 53 3 -55 c2 -30 2 -83 0 -117z m838 -756 c-2 -3 -52 27 -110
66 l-106 71 0 248 0 247 107 106 108 107 3 -421 c1 -231 0 -422 -2 -424z
m-477 461 l-62 -63 -49 41 c-44 37 -48 45 -48 84 0 41 4 46 108 148 l107 105
3 -127 3 -126 -62 -62z m61 -84 c0 -44 -3 -80 -7 -80 -5 1 -29 20 -55 44 l-46
43 46 36 c26 20 50 36 55 36 4 1 7 -35 7 -79z m1439 -1254 c39 -21 86 -77 102
-123 20 -56 20 -920 0 -978 -19 -57 -56 -102 -104 -128 -36 -19 -58 -22 -143
-22 -94 0 -104 2 -150 30 -36 22 -56 44 -74 80 l-25 50 0 480 c0 478 0 480 22
522 37 68 104 107 198 115 47 4 143 -10 174 -26z m-5934 -10 c55 -23 91 -61
112 -115 16 -42 18 -89 18 -486 0 -486 0 -488 -62 -556 -52 -57 -103 -69 -295
-69 l-158 0 0 618 c0 340 3 622 8 626 4 5 81 6 172 4 126 -4 175 -9 205 -22z
m917 -16 c22 -104 178 -1156 178 -1202 0 -4 -40 -8 -89 -8 -103 0 -92 -15
-112 153 l-12 107 -92 0 -92 0 -6 -37 c-3 -21 -11 -80 -18 -130 l-13 -93 -88
0 c-79 0 -88 2 -88 18 0 40 62 477 119 841 34 212 61 386 61 388 0 2 55 2 122
1 l122 -3 8 -35z m1016 -52 l3 -87 -143 -3 -143 -3 -3 -177 -2 -178 125 0 125
0 0 -90 0 -90 -125 0 -125 0 0 -265 0 -265 -90 0 -90 0 0 618 c0 340 3 622 7
626 4 3 108 5 232 4 l226 -3 3 -87z m850 0 l3 -88 -86 0 -85 0 0 -535 0 -535
-90 0 -90 0 0 535 0 535 -85 0 -85 0 0 83 c0 46 3 87 7 91 4 3 119 5 257 4
l251 -3 3 -87z m699 84 c12 -8 113 -626 163 -1004 16 -125 30 -229 30 -232 0
-3 -40 -6 -89 -6 -103 0 -92 -15 -112 153 l-12 107 -92 0 -93 0 -11 -74 c-6
-41 -14 -99 -17 -130 l-7 -56 -88 0 c-80 0 -89 2 -89 18 0 41 62 479 119 840
34 211 61 385 61 388 0 7 224 4 237 -4z m940 -28 c46 -24 61 -38 82 -79 25
-48 26 -55 26 -240 0 -183 -1 -191 -24 -229 -13 -21 -43 -50 -66 -65 l-42 -27
92 -264 c51 -146 95 -275 99 -287 7 -23 6 -23 -91 -23 l-98 0 -74 253 c-40
138 -77 262 -82 275 -22 59 -29 1 -29 -259 l0 -269 -90 0 -90 0 0 618 c0 340
3 622 8 626 4 5 78 6 164 4 150 -4 160 -6 215 -34z m2221 3 c5 -18 42 -175 83
-350 l74 -317 5 347 5 348 80 0 80 0 3 -623 2 -623 -91 3 -92 3 -78 330 c-43
182 -78 319 -79 305 -1 -14 -1 -163 0 -332 l1 -308 -91 0 -90 0 0 618 c0 340
3 622 7 625 3 4 44 7 89 7 l83 0 9 -33z m932 -502 l0 -534 143 -3 142 -3 3
-87 3 -88 -236 0 -235 0 0 618 c0 340 3 622 7 625 3 4 44 7 90 7 l83 0 0 -535z
m838 -92 l2 -623 -95 0 -95 0 0 619 c0 340 3 621 6 624 3 3 44 4 92 3 l87 -1
3 -622z m610 594 c5 -18 42 -175 83 -350 l74 -317 5 347 5 348 80 0 80 0 3
-623 2 -623 -91 3 -92 3 -68 295 c-38 162 -73 311 -78 330 -6 23 -10 -76 -11
-290 -1 -179 -2 -328 -1 -332 0 -5 -40 -8 -89 -8 l-90 0 0 618 c0 340 3 622 7
625 3 4 44 7 89 7 l83 0 9 -33z m1220 -59 l3 -88 -146 0 -145 0 0 -180 0 -180
125 0 125 0 0 -90 0 -90 -125 0 -125 0 0 -175 0 -175 145 0 145 0 0 -90 0 -90
-235 0 -235 0 0 618 c0 340 3 622 7 626 4 3 108 5 232 4 l226 -3 3 -87z"/>
<path d="M11623 7220 c-12 -5 -26 -18 -32 -29 -7 -13 -11 -160 -11 -435 0
-403 1 -417 20 -436 26 -26 90 -27 113 -2 15 17 17 62 17 443 0 233 -4 429 -8
436 -7 11 -56 34 -70 32 -4 0 -17 -4 -29 -9z"/>
<path d="M5660 6766 l0 -446 59 0 c63 0 86 13 96 53 3 12 4 196 3 409 -3 446
3 419 -98 426 l-60 4 0 -446z"/>
<path d="M6651 7075 c-1 -5 -15 -109 -31 -230 -17 -121 -30 -230 -30 -242 0
-22 4 -23 65 -23 36 0 65 4 65 8 0 13 -60 466 -64 482 -2 8 -4 11 -5 5z"/>
<path d="M9231 7075 c-1 -5 -15 -109 -31 -230 -17 -121 -30 -230 -30 -242 0
-22 4 -23 65 -23 36 0 65 4 65 8 0 13 -60 466 -64 482 -2 8 -4 11 -5 5z"/>
<path d="M10080 7030 l0 -180 44 0 c29 0 52 7 70 21 26 20 26 21 26 159 0 138
0 139 -26 159 -18 14 -41 21 -70 21 l-44 0 0 -180z"/>
</g>
</svg>
